<svg width="1120" height="400" viewBox="0 0 1120 400" fill="none" xmlns="http://www.w3.org/2000/svg">
<g clip-path="url(#clip0_2764_4206)">
<rect width="1120" height="400" rx="16" fill="#F0F0F0"/>
<rect x="392.886" y="-90.9307" width="317.614" height="317.614" rx="158.807" stroke="#DEDEDE" stroke-width="1.5"/>
<rect x="294.213" y="-189.604" width="514.961" height="514.961" rx="257.48" stroke="#DEDEDE" stroke-width="1.5"/>
<g filter="url(#filter0_d_2764_4206)">
<path d="M261 146.083C261 132.171 261 125.215 265.322 120.893C269.644 116.571 276.6 116.571 290.512 116.571H309.911C323.823 116.571 330.779 116.571 335.101 120.893C339.423 125.215 339.423 132.171 339.423 146.083V165.482C339.423 179.395 339.423 186.351 335.101 190.673C330.779 194.994 323.823 194.994 309.911 194.994H290.512C276.6 194.994 269.644 194.994 265.322 190.673C261 186.351 261 179.395 261 165.482V146.083Z" fill="#FAFAFA"/>
<path d="M261.595 146.083C261.595 139.11 261.596 133.941 262.13 129.971C262.661 126.019 263.711 123.346 265.743 121.314C267.775 119.282 270.448 118.233 274.4 117.701C278.369 117.168 283.539 117.166 290.512 117.166H309.911C316.884 117.166 322.054 117.168 326.023 117.701C329.976 118.233 332.648 119.282 334.68 121.314C336.712 123.346 337.762 126.019 338.293 129.971C338.827 133.941 338.828 139.11 338.828 146.083V165.482C338.828 172.455 338.827 177.625 338.293 181.595C337.762 185.547 336.712 188.22 334.68 190.252C332.648 192.284 329.976 193.333 326.023 193.864C322.054 194.398 316.884 194.399 309.911 194.399H290.512C283.539 194.399 278.369 194.398 274.4 193.864C270.448 193.333 267.775 192.284 265.743 190.252C263.711 188.22 262.661 185.547 262.13 181.595C261.596 177.625 261.595 172.455 261.595 165.482V146.083Z" stroke="#E6E6E6" stroke-width="1.19023"/>
<g opacity="0.23" filter="url(#filter1_f_2764_4206)">
<rect x="288.544" y="144.116" width="27.5446" height="27.5446" fill="url(#paint0_radial_2764_4206)"/>
</g>
<g clip-path="url(#clip1_2764_4206)">
<path d="M306.661 145.308H302.146L310.38 166.112H314.895L306.661 145.308ZM293.617 145.308L285.383 166.112H289.987L291.671 161.743H300.285L301.969 166.112H306.572L298.339 145.308H293.617ZM293.16 157.879L295.978 150.57L298.795 157.88L293.16 157.879Z" fill="black"/>
<g style="mix-blend-mode:plus-lighter" opacity="0.1" filter="url(#filter2_f_2764_4206)">
<path d="M306.661 145.308H302.146L310.38 166.112H314.895L306.661 145.308ZM293.617 145.308L285.383 166.112H289.987L291.671 161.743H300.285L301.969 166.112H306.572L298.339 145.308H293.617ZM293.16 157.879L295.978 150.57L298.795 157.88L293.16 157.879Z" stroke="black" stroke-width="2.29538" stroke-linecap="round" stroke-linejoin="round"/>
</g>
</g>
</g>
<g filter="url(#filter3_d_2764_4206)">
<path d="M510.376 305.448C510.376 291.536 510.376 284.58 514.698 280.258C519.02 275.936 525.976 275.936 539.888 275.936H559.288C573.2 275.936 580.156 275.936 584.478 280.258C588.8 284.58 588.8 291.536 588.8 305.448V324.847C588.8 338.76 588.8 345.716 584.478 350.038C580.156 354.359 573.2 354.359 559.288 354.359H539.889C525.976 354.359 519.02 354.359 514.698 350.038C510.376 345.716 510.376 338.76 510.376 324.847V305.448Z" fill="#FAFAFA"/>
<path d="M510.972 305.448C510.972 298.475 510.973 293.306 511.507 289.336C512.038 285.384 513.087 282.711 515.119 280.679C517.151 278.647 519.824 277.598 523.776 277.066C527.746 276.533 532.916 276.531 539.888 276.531H559.288C566.26 276.531 571.43 276.533 575.4 277.066C579.352 277.598 582.025 278.647 584.057 280.679C586.089 282.711 587.138 285.384 587.67 289.336C588.203 293.306 588.205 298.475 588.205 305.448V324.847C588.205 331.82 588.203 336.99 587.67 340.96C587.138 344.912 586.089 347.585 584.057 349.617C582.025 351.649 579.352 352.698 575.4 353.229C571.43 353.763 566.261 353.764 559.288 353.764H539.889C532.916 353.764 527.746 353.763 523.776 353.229C519.824 352.698 517.151 351.649 515.119 349.617C513.087 347.585 512.038 344.912 511.507 340.96C510.973 336.99 510.972 331.82 510.972 324.847V305.448Z" stroke="#E6E6E6" stroke-width="1.19023"/>
<g clip-path="url(#clip2_2764_4206)">
<path d="M543.081 312.684C543.081 313.053 543.111 313.348 543.185 313.599C543.259 313.776 543.362 314.012 543.495 314.278C543.554 314.337 543.568 314.425 543.568 314.499C543.568 314.602 543.509 314.691 543.377 314.794L542.757 315.207C542.668 315.266 542.58 315.296 542.506 315.296C542.403 315.296 542.314 315.237 542.211 315.148C542.078 315.001 541.96 314.853 541.857 314.691C541.768 314.529 541.665 314.337 541.562 314.115C540.794 315.015 539.835 315.473 538.669 315.473C537.843 315.473 537.194 315.237 536.707 314.765C536.235 314.292 535.984 313.658 535.984 312.861C535.984 312.05 536.279 311.385 536.869 310.854C537.474 310.353 538.271 310.087 539.274 310.087C539.614 310.087 539.924 310.116 540.322 310.175C540.661 310.22 541.06 310.294 541.444 310.382V309.674C541.444 308.921 541.296 308.434 540.986 308.095C540.661 307.785 540.145 307.652 539.392 307.652C539.038 307.652 538.684 307.696 538.33 307.77C537.961 307.859 537.607 307.962 537.268 308.11C537.105 308.169 536.972 308.213 536.928 308.228C536.854 308.257 536.81 308.257 536.766 308.257C536.633 308.257 536.559 308.169 536.559 307.962V307.475C536.559 307.328 536.574 307.21 536.633 307.136C536.677 307.062 536.766 307.003 536.899 306.959C537.253 306.752 537.651 306.605 538.138 306.486C538.639 306.356 539.155 306.291 539.673 306.295C540.839 306.295 541.694 306.56 542.24 307.091C542.786 307.623 543.052 308.434 543.052 309.511V312.684H543.081ZM539.097 314.189C539.422 314.189 539.747 314.13 540.101 314.012C540.455 313.894 540.765 313.673 541.03 313.378C541.193 313.186 541.311 312.979 541.399 312.743C541.399 312.507 541.473 312.227 541.473 311.887V311.489C541.178 311.385 540.883 311.385 540.558 311.312C540.254 311.279 539.949 311.259 539.643 311.253C538.979 311.253 538.507 311.385 538.182 311.651C537.858 311.917 537.71 312.286 537.71 312.773C537.71 313.245 537.814 313.599 538.064 313.82C538.3 314.071 538.64 314.189 539.097 314.189ZM546.977 315.237C546.834 315.241 546.692 315.211 546.564 315.148C546.52 315.074 546.446 314.942 546.387 314.765L544.085 307.18C544.026 306.959 543.996 306.855 543.996 306.782C543.996 306.619 544.07 306.531 544.232 306.531H545.192C545.383 306.531 545.516 306.56 545.575 306.634C545.664 306.693 545.723 306.826 545.782 307.018L547.42 313.51L548.954 307.018C548.999 306.826 549.058 306.693 549.146 306.634C549.22 306.575 549.353 306.531 549.515 306.531H550.327C550.504 306.531 550.637 306.56 550.71 306.634C550.784 306.693 550.858 306.826 550.902 307.018L552.466 313.599L554.148 307.018C554.207 306.826 554.281 306.693 554.34 306.634C554.429 306.575 554.547 306.531 554.724 306.531H555.639C555.801 306.531 555.89 306.619 555.89 306.782C555.89 306.826 555.875 306.885 555.86 306.959C555.86 306.959 555.831 307.077 555.801 307.18L553.425 314.765C553.366 314.971 553.307 315.074 553.204 315.148C553.145 315.207 553.012 315.252 552.85 315.252H552.009C551.817 315.252 551.728 315.222 551.61 315.148C551.511 315.043 551.449 314.908 551.433 314.765L549.913 308.434L548.394 314.75C548.349 314.942 548.29 315.074 548.217 315.148C548.095 315.215 547.957 315.245 547.818 315.237H546.977ZM559.593 315.502C559.106 315.502 558.561 315.443 558.074 315.325C557.587 315.207 557.203 315.074 556.952 314.942C556.824 314.88 556.716 314.783 556.642 314.661C556.602 314.579 556.582 314.488 556.583 314.396V313.894C556.583 313.687 556.657 313.599 556.805 313.599H556.982C557.041 313.599 557.129 313.673 557.232 313.717C557.557 313.864 557.926 313.983 558.31 314.056C558.708 314.13 559.106 314.174 559.475 314.174C560.095 314.174 560.582 314.071 560.907 313.85C561.246 313.599 561.423 313.319 561.423 312.92C561.423 312.64 561.32 312.418 561.158 312.227C560.98 312.05 560.641 311.872 560.169 311.725L558.738 311.282C558.029 311.046 557.498 310.721 557.173 310.279C556.857 309.869 556.685 309.365 556.686 308.847C556.686 308.434 556.775 308.08 556.952 307.77C557.129 307.446 557.365 307.18 557.631 306.959C557.956 306.737 558.28 306.575 558.679 306.457C559.062 306.339 559.475 306.28 559.918 306.28C560.125 306.28 560.346 306.295 560.582 306.324C560.789 306.354 560.995 306.398 561.202 306.427C561.408 306.486 561.585 306.531 561.763 306.59C561.94 306.649 562.058 306.708 562.176 306.767C562.309 306.841 562.412 306.914 562.471 307.003C562.53 307.091 562.559 307.195 562.559 307.328V307.8C562.559 308.006 562.486 308.11 562.338 308.11C562.264 308.11 562.131 308.065 561.954 307.992C561.408 307.741 560.774 307.608 560.08 307.608C559.52 307.608 559.106 307.696 558.767 307.888C558.472 308.065 558.31 308.361 558.31 308.759C558.31 309.039 558.413 309.275 558.605 309.452C558.797 309.644 559.166 309.821 559.682 309.998L561.084 310.441C561.792 310.648 562.294 310.972 562.604 311.385C562.899 311.784 563.046 312.241 563.046 312.758C563.046 313.171 562.958 313.555 562.795 313.894C562.618 314.219 562.382 314.514 562.058 314.75C561.777 315.001 561.408 315.178 560.995 315.311C560.582 315.443 560.08 315.502 559.593 315.502ZM561.438 320.283C558.206 322.659 553.514 323.928 549.515 323.928C543.834 323.928 538.743 321.833 534.892 318.365C534.582 318.085 534.862 317.716 535.231 317.937C539.392 320.342 544.513 321.803 549.825 321.803C553.411 321.803 557.351 321.065 560.966 319.501C561.512 319.28 561.969 319.885 561.438 320.283ZM562.795 318.763C562.368 318.218 560.051 318.498 559.003 318.616C558.693 318.66 558.649 318.38 558.929 318.173C560.774 316.889 563.814 317.288 564.153 317.686C564.507 318.129 564.065 321.169 562.338 322.615C562.058 322.836 561.807 322.718 561.925 322.452C562.323 321.449 563.194 319.265 562.795 318.763Z" fill="black"/>
<g style="mix-blend-mode:plus-lighter" opacity="0.1" filter="url(#filter4_f_2764_4206)">
<path d="M543.081 312.684C543.081 313.053 543.111 313.348 543.185 313.599C543.259 313.776 543.362 314.012 543.495 314.278C543.554 314.337 543.568 314.425 543.568 314.499C543.568 314.602 543.509 314.691 543.377 314.794L542.757 315.207C542.668 315.266 542.58 315.296 542.506 315.296C542.403 315.296 542.314 315.237 542.211 315.148C542.078 315.001 541.96 314.853 541.857 314.691C541.768 314.529 541.665 314.337 541.562 314.115C540.794 315.015 539.835 315.473 538.669 315.473C537.843 315.473 537.194 315.237 536.707 314.765C536.235 314.292 535.984 313.658 535.984 312.861C535.984 312.05 536.279 311.385 536.869 310.854C537.474 310.353 538.271 310.087 539.274 310.087C539.614 310.087 539.924 310.116 540.322 310.175C540.661 310.22 541.06 310.294 541.444 310.382V309.674C541.444 308.921 541.296 308.434 540.986 308.095C540.661 307.785 540.145 307.652 539.392 307.652C539.038 307.652 538.684 307.696 538.33 307.77C537.961 307.859 537.607 307.962 537.268 308.11C537.105 308.169 536.972 308.213 536.928 308.228C536.854 308.257 536.81 308.257 536.766 308.257C536.633 308.257 536.559 308.169 536.559 307.962V307.475C536.559 307.328 536.574 307.21 536.633 307.136C536.677 307.062 536.766 307.003 536.899 306.959C537.253 306.752 537.651 306.605 538.138 306.486C538.639 306.356 539.155 306.291 539.673 306.295C540.839 306.295 541.694 306.56 542.24 307.091C542.786 307.623 543.052 308.434 543.052 309.511V312.684H543.081ZM539.097 314.189C539.422 314.189 539.747 314.13 540.101 314.012C540.455 313.894 540.765 313.673 541.03 313.378C541.193 313.186 541.311 312.979 541.399 312.743C541.399 312.507 541.473 312.227 541.473 311.887V311.489C541.178 311.385 540.883 311.385 540.558 311.312C540.254 311.279 539.949 311.259 539.643 311.253C538.979 311.253 538.507 311.385 538.182 311.651C537.858 311.917 537.71 312.286 537.71 312.773C537.71 313.245 537.814 313.599 538.064 313.82C538.3 314.071 538.64 314.189 539.097 314.189ZM546.977 315.237C546.834 315.241 546.692 315.211 546.564 315.148C546.52 315.074 546.446 314.942 546.387 314.765L544.085 307.18C544.026 306.959 543.996 306.855 543.996 306.782C543.996 306.619 544.07 306.531 544.232 306.531H545.192C545.383 306.531 545.516 306.56 545.575 306.634C545.664 306.693 545.723 306.826 545.782 307.018L547.42 313.51L548.954 307.018C548.999 306.826 549.058 306.693 549.146 306.634C549.22 306.575 549.353 306.531 549.515 306.531H550.327C550.504 306.531 550.637 306.56 550.71 306.634C550.784 306.693 550.858 306.826 550.902 307.018L552.466 313.599L554.148 307.018C554.207 306.826 554.281 306.693 554.34 306.634C554.429 306.575 554.547 306.531 554.724 306.531H555.639C555.801 306.531 555.89 306.619 555.89 306.782C555.89 306.826 555.875 306.885 555.86 306.959C555.86 306.959 555.831 307.077 555.801 307.18L553.425 314.765C553.366 314.971 553.307 315.074 553.204 315.148C553.145 315.207 553.012 315.252 552.85 315.252H552.009C551.817 315.252 551.728 315.222 551.61 315.148C551.511 315.043 551.449 314.908 551.433 314.765L549.913 308.434L548.394 314.75C548.349 314.942 548.29 315.074 548.217 315.148C548.095 315.215 547.957 315.245 547.818 315.237H546.977ZM559.593 315.502C559.106 315.502 558.561 315.443 558.074 315.325C557.587 315.207 557.203 315.074 556.952 314.942C556.824 314.88 556.716 314.783 556.642 314.661C556.602 314.579 556.582 314.488 556.583 314.396V313.894C556.583 313.687 556.657 313.599 556.805 313.599H556.982C557.041 313.599 557.129 313.673 557.232 313.717C557.557 313.864 557.926 313.983 558.31 314.056C558.708 314.13 559.106 314.174 559.475 314.174C560.095 314.174 560.582 314.071 560.907 313.85C561.246 313.599 561.423 313.319 561.423 312.92C561.423 312.64 561.32 312.418 561.158 312.227C560.98 312.05 560.641 311.872 560.169 311.725L558.738 311.282C558.029 311.046 557.498 310.721 557.173 310.279C556.857 309.869 556.685 309.365 556.686 308.847C556.686 308.434 556.775 308.08 556.952 307.77C557.129 307.446 557.365 307.18 557.631 306.959C557.956 306.737 558.28 306.575 558.679 306.457C559.062 306.339 559.475 306.28 559.918 306.28C560.125 306.28 560.346 306.295 560.582 306.324C560.789 306.354 560.995 306.398 561.202 306.427C561.408 306.486 561.585 306.531 561.763 306.59C561.94 306.649 562.058 306.708 562.176 306.767C562.309 306.841 562.412 306.914 562.471 307.003C562.53 307.091 562.559 307.195 562.559 307.328V307.8C562.559 308.006 562.486 308.11 562.338 308.11C562.264 308.11 562.131 308.065 561.954 307.992C561.408 307.741 560.774 307.608 560.08 307.608C559.52 307.608 559.106 307.696 558.767 307.888C558.472 308.065 558.31 308.361 558.31 308.759C558.31 309.039 558.413 309.275 558.605 309.452C558.797 309.644 559.166 309.821 559.682 309.998L561.084 310.441C561.792 310.648 562.294 310.972 562.604 311.385C562.899 311.784 563.046 312.241 563.046 312.758C563.046 313.171 562.958 313.555 562.795 313.894C562.618 314.219 562.382 314.514 562.058 314.75C561.777 315.001 561.408 315.178 560.995 315.311C560.582 315.443 560.08 315.502 559.593 315.502ZM561.438 320.283C558.206 322.659 553.514 323.928 549.515 323.928C543.834 323.928 538.743 321.833 534.892 318.365C534.582 318.085 534.862 317.716 535.231 317.937C539.392 320.342 544.513 321.803 549.825 321.803C553.411 321.803 557.351 321.065 560.966 319.501C561.512 319.28 561.969 319.885 561.438 320.283ZM562.795 318.763C562.368 318.218 560.051 318.498 559.003 318.616C558.693 318.66 558.649 318.38 558.929 318.173C560.774 316.889 563.814 317.288 564.153 317.686C564.507 318.129 564.065 321.169 562.338 322.615C562.058 322.836 561.807 322.718 561.925 322.452C562.323 321.449 563.194 319.265 562.795 318.763Z" stroke="black" stroke-width="2.29538" stroke-linecap="round" stroke-linejoin="round"/>
</g>
</g>
</g>
<g filter="url(#filter5_bi_2764_4206)">
<g clip-path="url(#clip3_2764_4206)">
<g filter="url(#filter6_d_2764_4206)">
<path d="M781.559 105.211C781.559 91.2991 781.559 84.3431 785.881 80.0212C790.203 75.6992 797.159 75.6992 811.071 75.6992H832.385C846.297 75.6992 853.254 75.6992 857.575 80.0212C861.897 84.3431 861.897 91.2991 861.897 105.211V126.525C861.897 140.438 861.897 147.394 857.575 151.716C853.254 156.038 846.297 156.038 832.385 156.038H811.071C797.159 156.038 790.203 156.038 785.881 151.716C781.559 147.394 781.559 140.438 781.559 126.525V105.211Z" fill="#FAFAFA"/>
<path d="M782.154 105.211C782.154 98.2384 782.155 93.0686 782.689 89.0992C783.221 85.1469 784.27 82.4739 786.302 80.442C788.334 78.41 791.007 77.3606 794.959 76.8293C798.928 76.2956 804.098 76.2943 811.071 76.2943H832.385C839.358 76.2943 844.528 76.2956 848.497 76.8293C852.45 77.3606 855.123 78.41 857.155 80.442C859.187 82.4739 860.236 85.1469 860.767 89.0992C861.301 93.0686 861.302 98.2384 861.302 105.211V126.525C861.302 133.498 861.301 138.668 860.767 142.638C860.236 146.59 859.187 149.263 857.155 151.295C855.123 153.327 852.45 154.376 848.497 154.907C844.528 155.441 839.358 155.442 832.385 155.442H811.071C804.098 155.442 798.928 155.441 794.959 154.907C791.007 154.376 788.334 153.327 786.302 151.295C784.27 149.263 783.221 146.59 782.689 142.638C782.155 138.668 782.154 133.498 782.154 126.525V105.211Z" stroke="#E6E6E6" stroke-width="1.19023"/>
</g>
<g opacity="0.23" filter="url(#filter7_f_2764_4206)">
<rect x="807.956" y="104.275" width="27.5446" height="27.5446" fill="url(#paint1_radial_2764_4206)"/>
</g>
<g clip-path="url(#clip4_2764_4206)">
<path d="M831.84 113.265C832.161 112.299 832.273 111.276 832.167 110.263C832.061 109.251 831.74 108.273 831.226 107.394C830.463 106.066 829.297 105.014 827.898 104.39C826.498 103.767 824.937 103.604 823.439 103.926C822.764 103.165 821.933 102.556 821.003 102.142C820.074 101.727 819.066 101.516 818.048 101.522C816.517 101.519 815.024 102.001 813.785 102.901C812.545 103.8 811.623 105.07 811.152 106.527C810.154 106.731 809.212 107.146 808.387 107.744C807.563 108.342 806.876 109.109 806.372 109.995C805.603 111.32 805.275 112.854 805.435 114.378C805.595 115.901 806.234 117.335 807.261 118.471C806.94 119.437 806.828 120.46 806.934 121.473C807.04 122.486 807.361 123.464 807.875 124.342C808.638 125.671 809.804 126.723 811.203 127.346C812.603 127.969 814.164 128.132 815.662 127.811C816.338 128.572 817.168 129.18 818.098 129.595C819.028 130.009 820.035 130.22 821.053 130.214C822.585 130.218 824.079 129.735 825.319 128.835C826.559 127.935 827.481 126.664 827.952 125.206C828.949 125.002 829.892 124.587 830.716 123.989C831.54 123.391 832.227 122.623 832.731 121.738C833.499 120.414 833.826 118.879 833.666 117.356C833.506 115.833 832.866 114.401 831.84 113.265ZM821.055 128.34C819.797 128.342 818.579 127.901 817.613 127.095C817.657 127.072 817.734 127.03 817.783 126.999L823.496 123.7C823.639 123.618 823.759 123.5 823.841 123.357C823.924 123.214 823.967 123.051 823.966 122.886V114.831L826.38 116.226C826.393 116.232 826.404 116.241 826.412 116.253C826.42 116.264 826.426 116.278 826.427 116.292V122.962C826.426 124.387 825.859 125.753 824.852 126.761C823.845 127.769 822.479 128.336 821.055 128.339L821.055 128.34ZM809.502 123.405C808.872 122.316 808.645 121.041 808.861 119.802C808.904 119.828 808.977 119.873 809.031 119.903L814.744 123.202C814.886 123.286 815.048 123.329 815.213 123.329C815.378 123.329 815.54 123.286 815.682 123.202L822.657 119.175V121.964C822.658 121.979 822.655 121.993 822.649 122.006C822.643 122.019 822.634 122.03 822.623 122.038L816.848 125.373C815.612 126.085 814.145 126.277 812.768 125.908C811.391 125.539 810.216 124.639 809.502 123.405ZM808 110.934C808.627 109.843 809.618 109.009 810.799 108.576C810.799 108.624 810.796 108.712 810.796 108.772V115.372C810.795 115.537 810.838 115.699 810.921 115.842C811.003 115.985 811.122 116.103 811.265 116.184L818.24 120.211L815.825 121.606C815.814 121.614 815.8 121.618 815.785 121.62C815.771 121.621 815.757 121.619 815.744 121.613L809.967 118.276C808.734 117.562 807.834 116.388 807.465 115.011C807.097 113.635 807.289 112.169 808 110.934ZM827.839 115.551L820.864 111.523L823.279 110.129C823.291 110.122 823.305 110.117 823.319 110.116C823.333 110.114 823.347 110.117 823.36 110.122L829.136 113.456C830.021 113.967 830.742 114.72 831.214 115.626C831.687 116.532 831.892 117.554 831.804 118.572C831.717 119.59 831.342 120.563 830.722 121.375C830.102 122.188 829.264 122.807 828.305 123.16V116.363C828.307 116.198 828.264 116.036 828.182 115.894C828.1 115.751 827.982 115.633 827.839 115.551ZM830.242 111.933C830.2 111.907 830.126 111.862 830.073 111.832L824.359 108.533C824.217 108.45 824.055 108.406 823.89 108.406C823.725 108.406 823.564 108.45 823.421 108.533L816.447 112.56V109.771C816.446 109.757 816.449 109.742 816.455 109.729C816.461 109.717 816.47 109.705 816.481 109.697L822.255 106.365C823.14 105.855 824.152 105.607 825.173 105.65C826.193 105.694 827.18 106.027 828.018 106.612C828.856 107.196 829.51 108.007 829.904 108.949C830.298 109.892 830.415 110.927 830.242 111.933ZM815.133 116.904L812.718 115.509C812.705 115.503 812.695 115.494 812.687 115.482C812.678 115.471 812.673 115.457 812.671 115.443V108.773C812.672 107.752 812.964 106.751 813.513 105.89C814.061 105.028 814.844 104.34 815.769 103.907C816.694 103.474 817.723 103.313 818.736 103.444C819.749 103.574 820.704 103.991 821.489 104.644C821.432 104.675 821.376 104.707 821.32 104.74L815.607 108.04C815.463 108.121 815.344 108.24 815.262 108.382C815.18 108.525 815.137 108.687 815.138 108.852L815.133 116.904ZM816.445 114.075L819.551 112.281L822.659 114.075V117.661L819.552 119.455L816.445 117.661V114.075Z" fill="black"/>
<g style="mix-blend-mode:plus-lighter" opacity="0.1" filter="url(#filter8_f_2764_4206)">
<path d="M831.84 113.265C832.161 112.299 832.273 111.276 832.167 110.263C832.061 109.251 831.74 108.273 831.226 107.394C830.463 106.066 829.297 105.014 827.898 104.39C826.498 103.767 824.937 103.604 823.439 103.926C822.764 103.165 821.933 102.556 821.003 102.142C820.074 101.727 819.066 101.516 818.048 101.522C816.517 101.519 815.024 102.001 813.785 102.901C812.545 103.8 811.623 105.07 811.152 106.527C810.154 106.731 809.212 107.146 808.387 107.744C807.563 108.342 806.876 109.109 806.372 109.995C805.603 111.32 805.275 112.854 805.435 114.378C805.595 115.901 806.234 117.335 807.261 118.471C806.94 119.437 806.828 120.46 806.934 121.473C807.04 122.486 807.361 123.464 807.875 124.342C808.638 125.671 809.804 126.723 811.203 127.346C812.603 127.969 814.164 128.132 815.662 127.811C816.338 128.572 817.168 129.18 818.098 129.595C819.028 130.009 820.035 130.22 821.053 130.214C822.585 130.218 824.079 129.735 825.319 128.835C826.559 127.935 827.481 126.664 827.952 125.206C828.949 125.002 829.892 124.587 830.716 123.989C831.54 123.391 832.227 122.623 832.731 121.738C833.499 120.414 833.826 118.879 833.666 117.356C833.506 115.833 832.866 114.401 831.84 113.265ZM821.055 128.34C819.797 128.342 818.579 127.901 817.613 127.095C817.657 127.072 817.734 127.03 817.783 126.999L823.496 123.7C823.639 123.618 823.759 123.5 823.841 123.357C823.924 123.214 823.967 123.051 823.966 122.886V114.831L826.38 116.226C826.393 116.232 826.404 116.241 826.412 116.253C826.42 116.264 826.426 116.278 826.427 116.292V122.962C826.426 124.387 825.859 125.753 824.852 126.761C823.845 127.769 822.479 128.336 821.055 128.339L821.055 128.34ZM809.502 123.405C808.872 122.316 808.645 121.041 808.861 119.802C808.904 119.828 808.977 119.873 809.031 119.903L814.744 123.202C814.886 123.286 815.048 123.329 815.213 123.329C815.378 123.329 815.54 123.286 815.682 123.202L822.657 119.175V121.964C822.658 121.979 822.655 121.993 822.649 122.006C822.643 122.019 822.634 122.03 822.623 122.038L816.848 125.373C815.612 126.085 814.145 126.277 812.768 125.908C811.391 125.539 810.216 124.639 809.502 123.405ZM808 110.934C808.627 109.843 809.618 109.009 810.799 108.576C810.799 108.624 810.796 108.712 810.796 108.772V115.372C810.795 115.537 810.838 115.699 810.921 115.842C811.003 115.985 811.122 116.103 811.265 116.184L818.24 120.211L815.825 121.606C815.814 121.614 815.8 121.618 815.785 121.62C815.771 121.621 815.757 121.619 815.744 121.613L809.967 118.276C808.734 117.562 807.834 116.388 807.465 115.011C807.097 113.635 807.289 112.169 808 110.934ZM827.839 115.551L820.864 111.523L823.279 110.129C823.291 110.122 823.305 110.117 823.319 110.116C823.333 110.114 823.347 110.117 823.36 110.122L829.136 113.456C830.021 113.967 830.742 114.72 831.214 115.626C831.687 116.532 831.892 117.554 831.804 118.572C831.717 119.59 831.342 120.563 830.722 121.375C830.102 122.188 829.264 122.807 828.305 123.16V116.363C828.307 116.198 828.264 116.036 828.182 115.894C828.1 115.751 827.982 115.633 827.839 115.551ZM830.242 111.933C830.2 111.907 830.126 111.862 830.073 111.832L824.359 108.533C824.217 108.45 824.055 108.406 823.89 108.406C823.725 108.406 823.564 108.45 823.421 108.533L816.447 112.56V109.771C816.446 109.757 816.449 109.742 816.455 109.729C816.461 109.717 816.47 109.705 816.481 109.697L822.255 106.365C823.14 105.855 824.152 105.607 825.173 105.65C826.193 105.694 827.18 106.027 828.018 106.612C828.856 107.196 829.51 108.007 829.904 108.949C830.298 109.892 830.415 110.927 830.242 111.933ZM815.133 116.904L812.718 115.509C812.705 115.503 812.695 115.494 812.687 115.482C812.678 115.471 812.673 115.457 812.671 115.443V108.773C812.672 107.752 812.964 106.751 813.513 105.89C814.061 105.028 814.844 104.34 815.769 103.907C816.694 103.474 817.723 103.313 818.736 103.444C819.749 103.574 820.704 103.991 821.489 104.644C821.432 104.675 821.376 104.707 821.32 104.74L815.607 108.04C815.463 108.121 815.344 108.24 815.262 108.382C815.18 108.525 815.137 108.687 815.138 108.852L815.133 116.904ZM816.445 114.075L819.551 112.281L822.659 114.075V117.661L819.552 119.455L816.445 117.661V114.075Z" stroke="black" stroke-width="2.29538" stroke-linecap="round" stroke-linejoin="round"/>
</g>
</g>
</g>
</g>
<path d="M519.946 44.916L521.047 45.4523L521.259 44.2464C524.236 27.2819 540.5 14.2013 560.249 14.2013C582.141 14.2013 599.729 30.2583 599.729 49.8788V61.074V61.9963H600.651H604.453C629.495 61.9963 649.636 80.3666 649.636 102.841C649.636 125.315 629.495 143.685 604.453 143.685H487.051C468.572 143.685 453.75 130.134 453.75 113.605C453.75 113.466 453.751 113.327 453.754 113.189L453.754 113.175L453.754 113.161C453.751 113.022 453.75 112.883 453.75 112.744C453.75 100.555 461.792 90.0022 473.441 85.2834L474.375 84.9052L473.916 84.0086C471.955 80.1744 470.862 75.9066 470.862 71.4081C470.862 54.8791 485.683 41.3282 504.162 41.3282C509.878 41.3282 515.252 42.6286 519.946 44.916Z" fill="#F5F5F5" stroke="#E6E6E6" stroke-width="1.8445"/>
<g filter="url(#filter9_ddii_2764_4206)">
<rect x="517.755" y="112.145" width="67.8777" height="67.8777" rx="33.9388" fill="#44A775"/>
<rect x="518.255" y="112.645" width="66.8777" height="66.8777" rx="33.4388" stroke="#2F7350"/>
</g>
<path fill-rule="evenodd" clip-rule="evenodd" d="M544.025 143.894V141.667C544.025 139.728 544.796 137.868 546.167 136.496C547.539 135.125 549.399 134.354 551.339 134.354C553.278 134.354 555.138 135.125 556.51 136.496C557.881 137.868 558.652 139.728 558.652 141.667V143.894C559.86 143.984 560.645 144.211 561.22 144.786C562.173 145.738 562.173 147.271 562.173 150.335C562.173 153.399 562.173 154.932 561.22 155.883C560.269 156.835 558.736 156.835 555.672 156.835H547.005C543.941 156.835 542.408 156.835 541.457 155.883C540.504 154.932 540.504 153.399 540.504 150.335C540.504 147.271 540.504 145.738 541.457 144.786C542.031 144.211 542.817 143.984 544.025 143.894ZM545.651 141.667C545.651 140.159 546.25 138.712 547.317 137.645C548.383 136.579 549.83 135.979 551.339 135.979C552.847 135.979 554.294 136.579 555.361 137.645C556.427 138.712 557.026 140.159 557.026 141.667V143.838C556.612 143.835 556.16 143.833 555.672 143.834H547.005C546.516 143.833 546.064 143.835 545.651 143.838V141.667ZM553.505 150.335C553.505 150.909 553.277 151.46 552.871 151.867C552.464 152.273 551.913 152.501 551.339 152.501C550.764 152.501 550.213 152.273 549.806 151.867C549.4 151.46 549.172 150.909 549.172 150.335C549.172 149.76 549.4 149.209 549.806 148.802C550.213 148.396 550.764 148.168 551.339 148.168C551.913 148.168 552.464 148.396 552.871 148.802C553.277 149.209 553.505 149.76 553.505 150.335Z" fill="white"/>
</g>
<defs>
<filter id="filter0_d_2764_4206" x="251.777" y="111.038" width="96.8684" height="96.8682" filterUnits="userSpaceOnUse" color-interpolation-filters="sRGB">
<feFlood flood-opacity="0" result="BackgroundImageFix"/>
<feColorMatrix in="SourceAlpha" type="matrix" values="0 0 0 0 0 0 0 0 0 0 0 0 0 0 0 0 0 0 127 0" result="hardAlpha"/>
<feMorphology radius="5.53351" operator="erode" in="SourceAlpha" result="effect1_dropShadow_2764_4206"/>
<feOffset dy="3.689"/>
<feGaussianBlur stdDeviation="7.37801"/>
<feComposite in2="hardAlpha" operator="out"/>
<feColorMatrix type="matrix" values="0 0 0 0 0 0 0 0 0 0 0 0 0 0 0 0 0 0 0.05 0"/>
<feBlend mode="normal" in2="BackgroundImageFix" result="effect1_dropShadow_2764_4206"/>
<feBlend mode="normal" in="SourceGraphic" in2="effect1_dropShadow_2764_4206" result="shape"/>
</filter>
<filter id="filter1_f_2764_4206" x="270.181" y="125.753" width="64.2705" height="64.2706" filterUnits="userSpaceOnUse" color-interpolation-filters="sRGB">
<feFlood flood-opacity="0" result="BackgroundImageFix"/>
<feBlend mode="normal" in="SourceGraphic" in2="BackgroundImageFix" result="shape"/>
<feGaussianBlur stdDeviation="9.18152" result="effect1_foregroundBlur_2764_4206"/>
</filter>
<filter id="filter2_f_2764_4206" x="282.76" y="142.685" width="34.7583" height="26.0501" filterUnits="userSpaceOnUse" color-interpolation-filters="sRGB">
<feFlood flood-opacity="0" result="BackgroundImageFix"/>
<feBlend mode="normal" in="SourceGraphic" in2="BackgroundImageFix" result="shape"/>
<feGaussianBlur stdDeviation="0.737801" result="effect1_foregroundBlur_2764_4206"/>
</filter>
<filter id="filter3_d_2764_4206" x="501.154" y="270.403" width="96.8684" height="96.8682" filterUnits="userSpaceOnUse" color-interpolation-filters="sRGB">
<feFlood flood-opacity="0" result="BackgroundImageFix"/>
<feColorMatrix in="SourceAlpha" type="matrix" values="0 0 0 0 0 0 0 0 0 0 0 0 0 0 0 0 0 0 127 0" result="hardAlpha"/>
<feMorphology radius="5.53351" operator="erode" in="SourceAlpha" result="effect1_dropShadow_2764_4206"/>
<feOffset dy="3.689"/>
<feGaussianBlur stdDeviation="7.37801"/>
<feComposite in2="hardAlpha" operator="out"/>
<feColorMatrix type="matrix" values="0 0 0 0 0 0 0 0 0 0 0 0 0 0 0 0 0 0 0.05 0"/>
<feBlend mode="normal" in2="BackgroundImageFix" result="effect1_dropShadow_2764_4206"/>
<feBlend mode="normal" in="SourceGraphic" in2="effect1_dropShadow_2764_4206" result="shape"/>
</filter>
<filter id="filter4_f_2764_4206" x="532.132" y="303.657" width="34.7578" height="22.8948" filterUnits="userSpaceOnUse" color-interpolation-filters="sRGB">
<feFlood flood-opacity="0" result="BackgroundImageFix"/>
<feBlend mode="normal" in="SourceGraphic" in2="BackgroundImageFix" result="shape"/>
<feGaussianBlur stdDeviation="0.737801" result="effect1_foregroundBlur_2764_4206"/>
</filter>
<filter id="filter5_bi_2764_4206" x="771.23" y="67.5487" width="96.7864" height="96.7863" filterUnits="userSpaceOnUse" color-interpolation-filters="sRGB">
<feFlood flood-opacity="0" result="BackgroundImageFix"/>
<feGaussianBlur in="BackgroundImageFix" stdDeviation="4.59076"/>
<feComposite in2="SourceAlpha" operator="in" result="effect1_backgroundBlur_2764_4206"/>
<feBlend mode="normal" in="SourceGraphic" in2="effect1_backgroundBlur_2764_4206" result="shape"/>
<feColorMatrix in="SourceAlpha" type="matrix" values="0 0 0 0 0 0 0 0 0 0 0 0 0 0 0 0 0 0 127 0" result="hardAlpha"/>
<feMorphology radius="1.14769" operator="dilate" in="SourceAlpha" result="effect2_innerShadow_2764_4206"/>
<feOffset dy="1.14769"/>
<feGaussianBlur stdDeviation="4.59076"/>
<feComposite in2="hardAlpha" operator="arithmetic" k2="-1" k3="1"/>
<feColorMatrix type="matrix" values="0 0 0 0 1 0 0 0 0 1 0 0 0 0 1 0 0 0 0.07 0"/>
<feBlend mode="normal" in2="shape" result="effect2_innerShadow_2764_4206"/>
</filter>
<filter id="filter6_d_2764_4206" x="772.337" y="70.1657" width="98.7834" height="98.7833" filterUnits="userSpaceOnUse" color-interpolation-filters="sRGB">
<feFlood flood-opacity="0" result="BackgroundImageFix"/>
<feColorMatrix in="SourceAlpha" type="matrix" values="0 0 0 0 0 0 0 0 0 0 0 0 0 0 0 0 0 0 127 0" result="hardAlpha"/>
<feMorphology radius="5.53351" operator="erode" in="SourceAlpha" result="effect1_dropShadow_2764_4206"/>
<feOffset dy="3.689"/>
<feGaussianBlur stdDeviation="7.37801"/>
<feComposite in2="hardAlpha" operator="out"/>
<feColorMatrix type="matrix" values="0 0 0 0 0 0 0 0 0 0 0 0 0 0 0 0 0 0 0.05 0"/>
<feBlend mode="normal" in2="BackgroundImageFix" result="effect1_dropShadow_2764_4206"/>
<feBlend mode="normal" in="SourceGraphic" in2="effect1_dropShadow_2764_4206" result="shape"/>
</filter>
<filter id="filter7_f_2764_4206" x="789.593" y="85.9116" width="64.2705" height="64.2708" filterUnits="userSpaceOnUse" color-interpolation-filters="sRGB">
<feFlood flood-opacity="0" result="BackgroundImageFix"/>
<feBlend mode="normal" in="SourceGraphic" in2="BackgroundImageFix" result="shape"/>
<feGaussianBlur stdDeviation="9.18152" result="effect1_foregroundBlur_2764_4206"/>
</filter>
<filter id="filter8_f_2764_4206" x="802.772" y="98.8989" width="33.5567" height="33.938" filterUnits="userSpaceOnUse" color-interpolation-filters="sRGB">
<feFlood flood-opacity="0" result="BackgroundImageFix"/>
<feBlend mode="normal" in="SourceGraphic" in2="BackgroundImageFix" result="shape"/>
<feGaussianBlur stdDeviation="0.737801" result="effect1_foregroundBlur_2764_4206"/>
</filter>
<filter id="filter9_ddii_2764_4206" x="512.755" y="107.145" width="77.8774" height="77.8777" filterUnits="userSpaceOnUse" color-interpolation-filters="sRGB">
<feFlood flood-opacity="0" result="BackgroundImageFix"/>
<feColorMatrix in="SourceAlpha" type="matrix" values="0 0 0 0 0 0 0 0 0 0 0 0 0 0 0 0 0 0 127 0" result="hardAlpha"/>
<feMorphology radius="3" operator="dilate" in="SourceAlpha" result="effect1_dropShadow_2764_4206"/>
<feOffset/>
<feComposite in2="hardAlpha" operator="out"/>
<feColorMatrix type="matrix" values="0 0 0 0 0 0 0 0 0 0 0 0 0 0 0 0 0 0 0.04 0"/>
<feBlend mode="normal" in2="BackgroundImageFix" result="effect1_dropShadow_2764_4206"/>
<feColorMatrix in="SourceAlpha" type="matrix" values="0 0 0 0 0 0 0 0 0 0 0 0 0 0 0 0 0 0 127 0" result="hardAlpha"/>
<feMorphology radius="1" operator="erode" in="SourceAlpha" result="effect2_dropShadow_2764_4206"/>
<feOffset/>
<feGaussianBlur stdDeviation="3"/>
<feComposite in2="hardAlpha" operator="out"/>
<feColorMatrix type="matrix" values="0 0 0 0 0 0 0 0 0 0 0 0 0 0 0 0 0 0 0.45 0"/>
<feBlend mode="normal" in2="effect1_dropShadow_2764_4206" result="effect2_dropShadow_2764_4206"/>
<feBlend mode="normal" in="SourceGraphic" in2="effect2_dropShadow_2764_4206" result="shape"/>
<feColorMatrix in="SourceAlpha" type="matrix" values="0 0 0 0 0 0 0 0 0 0 0 0 0 0 0 0 0 0 127 0" result="hardAlpha"/>
<feMorphology radius="2" operator="erode" in="SourceAlpha" result="effect3_innerShadow_2764_4206"/>
<feOffset/>
<feComposite in2="hardAlpha" operator="arithmetic" k2="-1" k3="1"/>
<feColorMatrix type="matrix" values="0 0 0 0 1 0 0 0 0 1 0 0 0 0 1 0 0 0 0.25 0"/>
<feBlend mode="normal" in2="shape" result="effect3_innerShadow_2764_4206"/>
<feColorMatrix in="SourceAlpha" type="matrix" values="0 0 0 0 0 0 0 0 0 0 0 0 0 0 0 0 0 0 127 0" result="hardAlpha"/>
<feOffset dy="-2"/>
<feComposite in2="hardAlpha" operator="arithmetic" k2="-1" k3="1"/>
<feColorMatrix type="matrix" values="0 0 0 0 0 0 0 0 0 0 0 0 0 0 0 0 0 0 0.3 0"/>
<feBlend mode="normal" in2="effect3_innerShadow_2764_4206" result="effect4_innerShadow_2764_4206"/>
</filter>
<radialGradient id="paint0_radial_2764_4206" cx="0" cy="0" r="1" gradientUnits="userSpaceOnUse" gradientTransform="translate(302.316 157.888) rotate(52.4314) scale(18.8235)">
<stop/>
<stop offset="1" stop-opacity="0"/>
</radialGradient>
<radialGradient id="paint1_radial_2764_4206" cx="0" cy="0" r="1" gradientUnits="userSpaceOnUse" gradientTransform="translate(821.728 118.047) rotate(52.4314) scale(18.8235)">
<stop/>
<stop offset="1" stop-opacity="0"/>
</radialGradient>
<clipPath id="clip0_2764_4206">
<rect width="1120" height="400" rx="16" fill="white"/>
</clipPath>
<clipPath id="clip1_2764_4206">
<rect width="29.512" height="29.512" fill="white" transform="translate(285.383 140.954)"/>
</clipPath>
<clipPath id="clip2_2764_4206">
<rect width="29.512" height="29.512" fill="white" transform="translate(534.759 300.319)"/>
</clipPath>
<clipPath id="clip3_2764_4206">
<path d="M780.412 95.0933C780.412 86.4369 780.412 82.1086 783.101 79.4194C785.79 76.7302 790.118 76.7302 798.775 76.7302H840.472C849.128 76.7302 853.456 76.7302 856.146 79.4194C858.835 82.1086 858.835 86.4368 858.835 95.0933V136.79C858.835 145.447 858.835 149.775 856.146 152.464C853.456 155.153 849.128 155.153 840.472 155.153H798.775C790.118 155.153 785.79 155.153 783.101 152.464C780.412 149.775 780.412 145.447 780.412 136.79V95.0933Z" fill="white"/>
</clipPath>
<clipPath id="clip4_2764_4206">
<rect width="29.512" height="29.512" fill="white" transform="translate(804.794 101.112)"/>
</clipPath>
</defs>
</svg>