<svg width="1120" height="400" viewBox="0 0 1120 400" fill="none" xmlns="http://www.w3.org/2000/svg">
<g clip-path="url(#clip0_2764_4909)">
<rect width="1120" height="400" rx="16" fill="#141414"/>
<rect x="393.549" y="-90.9307" width="317.614" height="317.614" rx="158.807" stroke="#2E2E2E" stroke-width="1.5"/>
<rect x="294.875" y="-189.604" width="514.961" height="514.961" rx="257.48" stroke="#2E2E2E" stroke-width="1.5"/>
<g filter="url(#filter0_d_2764_4909)">
<path d="M261.662 146.083C261.662 132.171 261.662 125.215 265.984 120.893C270.306 116.571 277.262 116.571 291.174 116.571H310.574C324.486 116.571 331.442 116.571 335.764 120.893C340.086 125.215 340.086 132.171 340.086 146.083V165.482C340.086 179.395 340.086 186.351 335.764 190.673C331.442 194.994 324.486 194.994 310.574 194.994H291.174C277.262 194.994 270.306 194.994 265.984 190.673C261.662 186.351 261.662 179.395 261.662 165.482V146.083Z" fill="#2E2E2E"/>
<path d="M262.257 146.083C262.257 139.11 262.259 133.941 262.792 129.971C263.324 126.019 264.373 123.346 266.405 121.314C268.437 119.282 271.11 118.233 275.062 117.701C279.032 117.168 284.202 117.166 291.174 117.166H310.574C317.546 117.166 322.716 117.168 326.686 117.701C330.638 118.233 333.311 119.282 335.343 121.314C337.375 123.346 338.424 126.019 338.955 129.971C339.489 133.941 339.49 139.11 339.49 146.083V165.482C339.49 172.455 339.489 177.625 338.955 181.595C338.424 185.547 337.375 188.22 335.343 190.252C333.311 192.284 330.638 193.333 326.686 193.864C322.716 194.398 317.546 194.399 310.574 194.399H291.174C284.202 194.399 279.032 194.398 275.062 193.864C271.11 193.333 268.437 192.284 266.405 190.252C264.373 188.22 263.324 185.547 262.792 181.595C262.259 177.625 262.257 172.455 262.257 165.482V146.083Z" stroke="#666666" stroke-width="1.19023"/>
<g opacity="0.23" filter="url(#filter1_f_2764_4909)">
<rect x="289.207" y="144.116" width="27.5446" height="27.5446" fill="url(#paint0_radial_2764_4909)"/>
</g>
<g clip-path="url(#clip1_2764_4909)">
<path d="M307.323 145.308H302.808L311.042 166.112H315.557L307.323 145.308ZM294.279 145.308L286.045 166.112H290.649L292.334 161.743H300.947L302.631 166.112H307.235L299.001 145.308H294.279ZM293.823 157.879L296.64 150.57L299.457 157.88L293.823 157.879Z" fill="#E6E6E6"/>
<g style="mix-blend-mode:plus-lighter" opacity="0.1" filter="url(#filter2_f_2764_4909)">
<path d="M307.323 145.308H302.808L311.042 166.112H315.557L307.323 145.308ZM294.279 145.308L286.045 166.112H290.649L292.334 161.743H300.947L302.631 166.112H307.235L299.001 145.308H294.279ZM293.823 157.879L296.64 150.57L299.457 157.88L293.823 157.879Z" stroke="#E6E6E6" stroke-width="2.29538" stroke-linecap="round" stroke-linejoin="round"/>
</g>
</g>
</g>
<g filter="url(#filter3_d_2764_4909)">
<path d="M511.039 305.448C511.039 291.536 511.039 284.58 515.361 280.258C519.683 275.936 526.639 275.936 540.551 275.936H559.95C573.862 275.936 580.818 275.936 585.14 280.258C589.462 284.58 589.462 291.536 589.462 305.448V324.847C589.462 338.76 589.462 345.716 585.14 350.038C580.818 354.359 573.862 354.359 559.95 354.359H540.551C526.639 354.359 519.683 354.359 515.361 350.038C511.039 345.716 511.039 338.76 511.039 324.847V305.448Z" fill="#2E2E2E"/>
<path d="M511.634 305.448C511.634 298.475 511.635 293.306 512.169 289.336C512.7 285.384 513.75 282.711 515.782 280.679C517.814 278.647 520.487 277.598 524.439 277.066C528.408 276.533 533.578 276.531 540.551 276.531H559.95C566.923 276.531 572.093 276.533 576.062 277.066C580.014 277.598 582.687 278.647 584.719 280.679C586.751 282.711 587.801 285.384 588.332 289.336C588.866 293.306 588.867 298.475 588.867 305.448V324.847C588.867 331.82 588.866 336.99 588.332 340.96C587.801 344.912 586.751 347.585 584.719 349.617C582.687 351.649 580.014 352.698 576.062 353.229C572.093 353.763 566.923 353.764 559.95 353.764H540.551C533.578 353.764 528.408 353.763 524.439 353.229C520.487 352.698 517.814 351.649 515.782 349.617C513.75 347.585 512.7 344.912 512.169 340.96C511.635 336.99 511.634 331.82 511.634 324.847V305.448Z" stroke="#666666" stroke-width="1.19023"/>
<g clip-path="url(#clip2_2764_4909)">
<path d="M543.744 312.684C543.744 313.053 543.773 313.348 543.847 313.599C543.921 313.776 544.024 314.012 544.157 314.278C544.216 314.337 544.231 314.425 544.231 314.499C544.231 314.602 544.172 314.691 544.039 314.794L543.419 315.207C543.331 315.266 543.242 315.296 543.168 315.296C543.065 315.296 542.976 315.237 542.873 315.148C542.74 315.001 542.622 314.853 542.519 314.691C542.43 314.529 542.327 314.337 542.224 314.115C541.457 315.015 540.497 315.473 539.332 315.473C538.505 315.473 537.856 315.237 537.369 314.765C536.897 314.292 536.646 313.658 536.646 312.861C536.646 312.05 536.941 311.385 537.531 310.854C538.136 310.353 538.933 310.087 539.937 310.087C540.276 310.087 540.586 310.116 540.984 310.175C541.324 310.22 541.722 310.294 542.106 310.382V309.674C542.106 308.921 541.958 308.434 541.648 308.095C541.324 307.785 540.807 307.652 540.055 307.652C539.701 307.652 539.346 307.696 538.992 307.77C538.623 307.859 538.269 307.962 537.93 308.11C537.768 308.169 537.635 308.213 537.59 308.228C537.517 308.257 537.472 308.257 537.428 308.257C537.295 308.257 537.222 308.169 537.222 307.962V307.475C537.222 307.328 537.236 307.21 537.295 307.136C537.34 307.062 537.428 307.003 537.561 306.959C537.915 306.752 538.313 306.605 538.8 306.486C539.301 306.356 539.817 306.291 540.335 306.295C541.501 306.295 542.357 306.56 542.903 307.091C543.449 307.623 543.714 308.434 543.714 309.511V312.684H543.744ZM539.76 314.189C540.084 314.189 540.409 314.13 540.763 314.012C541.117 313.894 541.427 313.673 541.693 313.378C541.855 313.186 541.973 312.979 542.062 312.743C542.062 312.507 542.135 312.227 542.135 311.887V311.489C541.84 311.385 541.545 311.385 541.22 311.312C540.916 311.279 540.611 311.259 540.306 311.253C539.642 311.253 539.169 311.385 538.845 311.651C538.52 311.917 538.373 312.286 538.373 312.773C538.373 313.245 538.476 313.599 538.727 313.82C538.963 314.071 539.302 314.189 539.76 314.189ZM547.639 315.237C547.496 315.241 547.355 315.211 547.226 315.148C547.182 315.074 547.108 314.942 547.049 314.765L544.747 307.18C544.688 306.959 544.659 306.855 544.659 306.782C544.659 306.619 544.732 306.531 544.895 306.531H545.854C546.046 306.531 546.178 306.56 546.237 306.634C546.326 306.693 546.385 306.826 546.444 307.018L548.082 313.51L549.617 307.018C549.661 306.826 549.72 306.693 549.808 306.634C549.882 306.575 550.015 306.531 550.177 306.531H550.989C551.166 306.531 551.299 306.56 551.373 306.634C551.446 306.693 551.52 306.826 551.564 307.018L553.129 313.599L554.811 307.018C554.87 306.826 554.944 306.693 555.003 306.634C555.091 306.575 555.209 306.531 555.386 306.531H556.301C556.463 306.531 556.552 306.619 556.552 306.782C556.552 306.826 556.537 306.885 556.522 306.959C556.522 306.959 556.493 307.077 556.463 307.18L554.088 314.765C554.029 314.971 553.97 315.074 553.866 315.148C553.807 315.207 553.675 315.252 553.512 315.252H552.671C552.479 315.252 552.391 315.222 552.273 315.148C552.173 315.043 552.111 314.908 552.096 314.765L550.576 308.434L549.056 314.75C549.012 314.942 548.953 315.074 548.879 315.148C548.757 315.215 548.619 315.245 548.48 315.237H547.639ZM560.256 315.502C559.769 315.502 559.223 315.443 558.736 315.325C558.249 315.207 557.865 315.074 557.614 314.942C557.486 314.88 557.379 314.783 557.304 314.661C557.264 314.579 557.244 314.488 557.245 314.396V313.894C557.245 313.687 557.319 313.599 557.467 313.599H557.644C557.703 313.599 557.791 313.673 557.895 313.717C558.219 313.864 558.588 313.983 558.972 314.056C559.37 314.13 559.769 314.174 560.138 314.174C560.757 314.174 561.244 314.071 561.569 313.85C561.908 313.599 562.085 313.319 562.085 312.92C562.085 312.64 561.982 312.418 561.82 312.227C561.643 312.05 561.303 311.872 560.831 311.725L559.4 311.282C558.692 311.046 558.16 310.721 557.836 310.279C557.519 309.869 557.348 309.365 557.349 308.847C557.349 308.434 557.437 308.08 557.614 307.77C557.791 307.446 558.028 307.18 558.293 306.959C558.618 306.737 558.942 306.575 559.341 306.457C559.724 306.339 560.138 306.28 560.58 306.28C560.787 306.28 561.008 306.295 561.244 306.324C561.451 306.354 561.658 306.398 561.864 306.427C562.071 306.486 562.248 306.531 562.425 306.59C562.602 306.649 562.72 306.708 562.838 306.767C562.971 306.841 563.074 306.914 563.133 307.003C563.192 307.091 563.222 307.195 563.222 307.328V307.8C563.222 308.006 563.148 308.11 563 308.11C562.927 308.11 562.794 308.065 562.617 307.992C562.071 307.741 561.436 307.608 560.743 307.608C560.182 307.608 559.769 307.696 559.429 307.888C559.134 308.065 558.972 308.361 558.972 308.759C558.972 309.039 559.075 309.275 559.267 309.452C559.459 309.644 559.828 309.821 560.344 309.998L561.746 310.441C562.454 310.648 562.956 310.972 563.266 311.385C563.561 311.784 563.709 312.241 563.709 312.758C563.709 313.171 563.62 313.555 563.458 313.894C563.281 314.219 563.045 314.514 562.72 314.75C562.44 315.001 562.071 315.178 561.658 315.311C561.244 315.443 560.743 315.502 560.256 315.502ZM562.1 320.283C558.869 322.659 554.176 323.928 550.177 323.928C544.496 323.928 539.405 321.833 535.554 318.365C535.244 318.085 535.525 317.716 535.894 317.937C540.055 320.342 545.175 321.803 550.487 321.803C554.073 321.803 558.013 321.065 561.628 319.501C562.174 319.28 562.631 319.885 562.1 320.283ZM563.458 318.763C563.03 318.218 560.713 318.498 559.665 318.616C559.356 318.66 559.311 318.38 559.592 318.173C561.436 316.889 564.476 317.288 564.815 317.686C565.169 318.129 564.727 321.169 563 322.615C562.72 322.836 562.469 322.718 562.587 322.452C562.986 321.449 563.856 319.265 563.458 318.763Z" fill="#E6E6E6"/>
<g style="mix-blend-mode:plus-lighter" opacity="0.1" filter="url(#filter4_f_2764_4909)">
<path d="M543.744 312.684C543.744 313.053 543.773 313.348 543.847 313.599C543.921 313.776 544.024 314.012 544.157 314.278C544.216 314.337 544.231 314.425 544.231 314.499C544.231 314.602 544.172 314.691 544.039 314.794L543.419 315.207C543.331 315.266 543.242 315.296 543.168 315.296C543.065 315.296 542.976 315.237 542.873 315.148C542.74 315.001 542.622 314.853 542.519 314.691C542.43 314.529 542.327 314.337 542.224 314.115C541.457 315.015 540.497 315.473 539.332 315.473C538.505 315.473 537.856 315.237 537.369 314.765C536.897 314.292 536.646 313.658 536.646 312.861C536.646 312.05 536.941 311.385 537.531 310.854C538.136 310.353 538.933 310.087 539.937 310.087C540.276 310.087 540.586 310.116 540.984 310.175C541.324 310.22 541.722 310.294 542.106 310.382V309.674C542.106 308.921 541.958 308.434 541.648 308.095C541.324 307.785 540.807 307.652 540.055 307.652C539.701 307.652 539.346 307.696 538.992 307.77C538.623 307.859 538.269 307.962 537.93 308.11C537.768 308.169 537.635 308.213 537.59 308.228C537.517 308.257 537.472 308.257 537.428 308.257C537.295 308.257 537.222 308.169 537.222 307.962V307.475C537.222 307.328 537.236 307.21 537.295 307.136C537.34 307.062 537.428 307.003 537.561 306.959C537.915 306.752 538.313 306.605 538.8 306.486C539.301 306.356 539.817 306.291 540.335 306.295C541.501 306.295 542.357 306.56 542.903 307.091C543.449 307.623 543.714 308.434 543.714 309.511V312.684H543.744ZM539.76 314.189C540.084 314.189 540.409 314.13 540.763 314.012C541.117 313.894 541.427 313.673 541.693 313.378C541.855 313.186 541.973 312.979 542.062 312.743C542.062 312.507 542.135 312.227 542.135 311.887V311.489C541.84 311.385 541.545 311.385 541.22 311.312C540.916 311.279 540.611 311.259 540.306 311.253C539.642 311.253 539.169 311.385 538.845 311.651C538.52 311.917 538.373 312.286 538.373 312.773C538.373 313.245 538.476 313.599 538.727 313.82C538.963 314.071 539.302 314.189 539.76 314.189ZM547.639 315.237C547.496 315.241 547.355 315.211 547.226 315.148C547.182 315.074 547.108 314.942 547.049 314.765L544.747 307.18C544.688 306.959 544.659 306.855 544.659 306.782C544.659 306.619 544.732 306.531 544.895 306.531H545.854C546.046 306.531 546.178 306.56 546.237 306.634C546.326 306.693 546.385 306.826 546.444 307.018L548.082 313.51L549.617 307.018C549.661 306.826 549.72 306.693 549.808 306.634C549.882 306.575 550.015 306.531 550.177 306.531H550.989C551.166 306.531 551.299 306.56 551.373 306.634C551.446 306.693 551.52 306.826 551.564 307.018L553.129 313.599L554.811 307.018C554.87 306.826 554.944 306.693 555.003 306.634C555.091 306.575 555.209 306.531 555.386 306.531H556.301C556.463 306.531 556.552 306.619 556.552 306.782C556.552 306.826 556.537 306.885 556.522 306.959C556.522 306.959 556.493 307.077 556.463 307.18L554.088 314.765C554.029 314.971 553.97 315.074 553.866 315.148C553.807 315.207 553.675 315.252 553.512 315.252H552.671C552.479 315.252 552.391 315.222 552.273 315.148C552.173 315.043 552.111 314.908 552.096 314.765L550.576 308.434L549.056 314.75C549.012 314.942 548.953 315.074 548.879 315.148C548.757 315.215 548.619 315.245 548.48 315.237H547.639ZM560.256 315.502C559.769 315.502 559.223 315.443 558.736 315.325C558.249 315.207 557.865 315.074 557.614 314.942C557.486 314.88 557.379 314.783 557.304 314.661C557.264 314.579 557.244 314.488 557.245 314.396V313.894C557.245 313.687 557.319 313.599 557.467 313.599H557.644C557.703 313.599 557.791 313.673 557.895 313.717C558.219 313.864 558.588 313.983 558.972 314.056C559.37 314.13 559.769 314.174 560.138 314.174C560.757 314.174 561.244 314.071 561.569 313.85C561.908 313.599 562.085 313.319 562.085 312.92C562.085 312.64 561.982 312.418 561.82 312.227C561.643 312.05 561.303 311.872 560.831 311.725L559.4 311.282C558.692 311.046 558.16 310.721 557.836 310.279C557.519 309.869 557.348 309.365 557.349 308.847C557.349 308.434 557.437 308.08 557.614 307.77C557.791 307.446 558.028 307.18 558.293 306.959C558.618 306.737 558.942 306.575 559.341 306.457C559.724 306.339 560.138 306.28 560.58 306.28C560.787 306.28 561.008 306.295 561.244 306.324C561.451 306.354 561.658 306.398 561.864 306.427C562.071 306.486 562.248 306.531 562.425 306.59C562.602 306.649 562.72 306.708 562.838 306.767C562.971 306.841 563.074 306.914 563.133 307.003C563.192 307.091 563.222 307.195 563.222 307.328V307.8C563.222 308.006 563.148 308.11 563 308.11C562.927 308.11 562.794 308.065 562.617 307.992C562.071 307.741 561.436 307.608 560.743 307.608C560.182 307.608 559.769 307.696 559.429 307.888C559.134 308.065 558.972 308.361 558.972 308.759C558.972 309.039 559.075 309.275 559.267 309.452C559.459 309.644 559.828 309.821 560.344 309.998L561.746 310.441C562.454 310.648 562.956 310.972 563.266 311.385C563.561 311.784 563.709 312.241 563.709 312.758C563.709 313.171 563.62 313.555 563.458 313.894C563.281 314.219 563.045 314.514 562.72 314.75C562.44 315.001 562.071 315.178 561.658 315.311C561.244 315.443 560.743 315.502 560.256 315.502ZM562.1 320.283C558.869 322.659 554.176 323.928 550.177 323.928C544.496 323.928 539.405 321.833 535.554 318.365C535.244 318.085 535.525 317.716 535.894 317.937C540.055 320.342 545.175 321.803 550.487 321.803C554.073 321.803 558.013 321.065 561.628 319.501C562.174 319.28 562.631 319.885 562.1 320.283ZM563.458 318.763C563.03 318.218 560.713 318.498 559.665 318.616C559.356 318.66 559.311 318.38 559.592 318.173C561.436 316.889 564.476 317.288 564.815 317.686C565.169 318.129 564.727 321.169 563 322.615C562.72 322.836 562.469 322.718 562.587 322.452C562.986 321.449 563.856 319.265 563.458 318.763Z" stroke="#E6E6E6" stroke-width="2.29538" stroke-linecap="round" stroke-linejoin="round"/>
</g>
</g>
</g>
<g filter="url(#filter5_bi_2764_4909)">
<g clip-path="url(#clip3_2764_4909)">
<path d="M781.074 95.0933C781.074 86.4369 781.074 82.1086 783.763 79.4194C786.452 76.7302 790.78 76.7302 799.437 76.7302H841.134C849.79 76.7302 854.119 76.7302 856.808 79.4194C859.497 82.1086 859.497 86.4368 859.497 95.0933V136.79C859.497 145.447 859.497 149.775 856.808 152.464C854.119 155.153 849.79 155.153 841.134 155.153H799.437C790.78 155.153 786.452 155.153 783.763 152.464C781.074 149.775 781.074 145.447 781.074 136.79V95.0933Z" fill="#2E2E2E"/>
<g opacity="0.23" filter="url(#filter6_f_2764_4909)">
<rect x="808.618" y="104.275" width="27.5446" height="27.5446" fill="url(#paint1_radial_2764_4909)"/>
</g>
<g clip-path="url(#clip4_2764_4909)">
<path d="M832.502 113.265C832.823 112.299 832.935 111.276 832.829 110.263C832.723 109.251 832.402 108.273 831.888 107.394C831.125 106.066 829.959 105.014 828.56 104.39C827.16 103.767 825.599 103.604 824.101 103.926C823.426 103.165 822.595 102.556 821.666 102.142C820.736 101.727 819.728 101.516 818.711 101.522C817.179 101.519 815.686 102.001 814.447 102.901C813.207 103.8 812.286 105.07 811.814 106.527C810.816 106.731 809.874 107.146 809.049 107.744C808.225 108.342 807.538 109.109 807.034 109.995C806.265 111.32 805.937 112.854 806.097 114.378C806.257 115.901 806.897 117.335 807.924 118.471C807.602 119.437 807.49 120.46 807.596 121.473C807.702 122.486 808.023 123.464 808.538 124.342C809.301 125.671 810.466 126.723 811.865 127.346C813.265 127.969 814.826 128.132 816.324 127.811C817 128.572 817.83 129.18 818.76 129.595C819.69 130.009 820.697 130.22 821.715 130.214C823.248 130.218 824.741 129.735 825.981 128.835C827.221 127.935 828.143 126.664 828.614 125.206C829.611 125.002 830.554 124.587 831.378 123.989C832.203 123.391 832.89 122.623 833.393 121.738C834.161 120.414 834.489 118.879 834.328 117.356C834.168 115.833 833.528 114.401 832.502 113.265ZM821.718 128.34C820.46 128.342 819.241 127.901 818.275 127.095C818.319 127.072 818.396 127.03 818.445 126.999L824.158 123.7C824.301 123.618 824.421 123.5 824.503 123.357C824.586 123.214 824.629 123.051 824.628 122.886V114.831L827.042 116.226C827.055 116.232 827.066 116.241 827.074 116.253C827.082 116.264 827.088 116.278 827.09 116.292V122.962C827.088 124.387 826.521 125.753 825.514 126.761C824.507 127.769 823.142 128.336 821.717 128.339L821.718 128.34ZM810.164 123.405C809.535 122.316 809.308 121.041 809.523 119.802C809.566 119.828 809.639 119.873 809.693 119.903L815.406 123.202C815.548 123.286 815.71 123.329 815.875 123.329C816.04 123.329 816.202 123.286 816.344 123.202L823.319 119.175V121.964C823.32 121.979 823.317 121.993 823.311 122.006C823.305 122.019 823.296 122.03 823.285 122.038L817.51 125.373C816.274 126.085 814.807 126.277 813.43 125.908C812.053 125.539 810.879 124.639 810.164 123.405ZM808.662 110.934C809.289 109.843 810.28 109.009 811.461 108.576C811.461 108.624 811.458 108.712 811.458 108.772V115.372C811.458 115.537 811.501 115.699 811.583 115.842C811.665 115.985 811.784 116.103 811.928 116.184L818.902 120.211L816.488 121.606C816.476 121.614 816.462 121.618 816.448 121.62C816.433 121.621 816.419 121.619 816.406 121.613L810.629 118.276C809.396 117.562 808.496 116.388 808.128 115.011C807.759 113.635 807.951 112.169 808.662 110.934ZM828.501 115.551L821.526 111.523L823.941 110.129C823.953 110.122 823.967 110.117 823.981 110.116C823.995 110.114 824.009 110.117 824.022 110.122L829.798 113.456C830.683 113.967 831.404 114.72 831.876 115.626C832.349 116.532 832.554 117.554 832.467 118.572C832.379 119.59 832.004 120.563 831.384 121.375C830.765 122.188 829.926 122.807 828.967 123.16V116.363C828.969 116.198 828.926 116.036 828.844 115.894C828.762 115.751 828.644 115.633 828.501 115.551ZM830.904 111.933C830.862 111.907 830.788 111.862 830.735 111.832L825.021 108.533C824.879 108.45 824.717 108.406 824.552 108.406C824.388 108.406 824.226 108.45 824.083 108.533L817.109 112.56V109.771C817.108 109.757 817.111 109.742 817.117 109.729C817.123 109.717 817.132 109.705 817.143 109.697L822.918 106.365C823.802 105.855 824.814 105.607 825.835 105.65C826.855 105.694 827.842 106.027 828.68 106.612C829.518 107.196 830.173 108.007 830.566 108.949C830.96 109.892 831.077 110.927 830.904 111.933ZM815.795 116.904L813.38 115.509C813.368 115.503 813.357 115.494 813.349 115.482C813.341 115.471 813.335 115.457 813.334 115.443V108.773C813.334 107.752 813.626 106.751 814.175 105.89C814.723 105.028 815.506 104.34 816.431 103.907C817.356 103.474 818.385 103.313 819.398 103.444C820.411 103.574 821.366 103.991 822.152 104.644C822.094 104.675 822.038 104.707 821.982 104.74L816.269 108.04C816.126 108.121 816.007 108.24 815.924 108.382C815.842 108.525 815.799 108.687 815.8 108.852L815.795 116.904ZM817.107 114.075L820.213 112.281L823.321 114.075V117.661L820.214 119.455L817.107 117.661V114.075Z" fill="#E6E6E6"/>
<g style="mix-blend-mode:plus-lighter" opacity="0.1" filter="url(#filter7_f_2764_4909)">
<path d="M832.502 113.265C832.823 112.299 832.935 111.276 832.829 110.263C832.723 109.251 832.402 108.273 831.888 107.394C831.125 106.066 829.959 105.014 828.56 104.39C827.16 103.767 825.599 103.604 824.101 103.926C823.426 103.165 822.595 102.556 821.666 102.142C820.736 101.727 819.728 101.516 818.711 101.522C817.179 101.519 815.686 102.001 814.447 102.901C813.207 103.8 812.286 105.07 811.814 106.527C810.816 106.731 809.874 107.146 809.049 107.744C808.225 108.342 807.538 109.109 807.034 109.995C806.265 111.32 805.937 112.854 806.097 114.378C806.257 115.901 806.897 117.335 807.924 118.471C807.602 119.437 807.49 120.46 807.596 121.473C807.702 122.486 808.023 123.464 808.538 124.342C809.301 125.671 810.466 126.723 811.865 127.346C813.265 127.969 814.826 128.132 816.324 127.811C817 128.572 817.83 129.18 818.76 129.595C819.69 130.009 820.697 130.22 821.715 130.214C823.248 130.218 824.741 129.735 825.981 128.835C827.221 127.935 828.143 126.664 828.614 125.206C829.611 125.002 830.554 124.587 831.378 123.989C832.203 123.391 832.89 122.623 833.393 121.738C834.161 120.414 834.489 118.879 834.328 117.356C834.168 115.833 833.528 114.401 832.502 113.265ZM821.718 128.34C820.46 128.342 819.241 127.901 818.275 127.095C818.319 127.072 818.396 127.03 818.445 126.999L824.158 123.7C824.301 123.618 824.421 123.5 824.503 123.357C824.586 123.214 824.629 123.051 824.628 122.886V114.831L827.042 116.226C827.055 116.232 827.066 116.241 827.074 116.253C827.082 116.264 827.088 116.278 827.09 116.292V122.962C827.088 124.387 826.521 125.753 825.514 126.761C824.507 127.769 823.142 128.336 821.717 128.339L821.718 128.34ZM810.164 123.405C809.535 122.316 809.308 121.041 809.523 119.802C809.566 119.828 809.639 119.873 809.693 119.903L815.406 123.202C815.548 123.286 815.71 123.329 815.875 123.329C816.04 123.329 816.202 123.286 816.344 123.202L823.319 119.175V121.964C823.32 121.979 823.317 121.993 823.311 122.006C823.305 122.019 823.296 122.03 823.285 122.038L817.51 125.373C816.274 126.085 814.807 126.277 813.43 125.908C812.053 125.539 810.879 124.639 810.164 123.405ZM808.662 110.934C809.289 109.843 810.28 109.009 811.461 108.576C811.461 108.624 811.458 108.712 811.458 108.772V115.372C811.458 115.537 811.501 115.699 811.583 115.842C811.665 115.985 811.784 116.103 811.928 116.184L818.902 120.211L816.488 121.606C816.476 121.614 816.462 121.618 816.448 121.62C816.433 121.621 816.419 121.619 816.406 121.613L810.629 118.276C809.396 117.562 808.496 116.388 808.128 115.011C807.759 113.635 807.951 112.169 808.662 110.934ZM828.501 115.551L821.526 111.523L823.941 110.129C823.953 110.122 823.967 110.117 823.981 110.116C823.995 110.114 824.009 110.117 824.022 110.122L829.798 113.456C830.683 113.967 831.404 114.72 831.876 115.626C832.349 116.532 832.554 117.554 832.467 118.572C832.379 119.59 832.004 120.563 831.384 121.375C830.765 122.188 829.926 122.807 828.967 123.16V116.363C828.969 116.198 828.926 116.036 828.844 115.894C828.762 115.751 828.644 115.633 828.501 115.551ZM830.904 111.933C830.862 111.907 830.788 111.862 830.735 111.832L825.021 108.533C824.879 108.45 824.717 108.406 824.552 108.406C824.388 108.406 824.226 108.45 824.083 108.533L817.109 112.56V109.771C817.108 109.757 817.111 109.742 817.117 109.729C817.123 109.717 817.132 109.705 817.143 109.697L822.918 106.365C823.802 105.855 824.814 105.607 825.835 105.65C826.855 105.694 827.842 106.027 828.68 106.612C829.518 107.196 830.173 108.007 830.566 108.949C830.96 109.892 831.077 110.927 830.904 111.933ZM815.795 116.904L813.38 115.509C813.368 115.503 813.357 115.494 813.349 115.482C813.341 115.471 813.335 115.457 813.334 115.443V108.773C813.334 107.752 813.626 106.751 814.175 105.89C814.723 105.028 815.506 104.34 816.431 103.907C817.356 103.474 818.385 103.313 819.398 103.444C820.411 103.574 821.366 103.991 822.152 104.644C822.094 104.675 822.038 104.707 821.982 104.74L816.269 108.04C816.126 108.121 816.007 108.24 815.924 108.382C815.842 108.525 815.799 108.687 815.8 108.852L815.795 116.904ZM817.107 114.075L820.213 112.281L823.321 114.075V117.661L820.214 119.455L817.107 117.661V114.075Z" stroke="#E6E6E6" stroke-width="2.29538" stroke-linecap="round" stroke-linejoin="round"/>
</g>
</g>
</g>
<path d="M781.648 95.0933C781.648 90.7488 781.649 87.5482 781.979 85.0951C782.306 82.6585 782.949 81.0454 784.169 79.8252C785.389 78.605 787.002 77.9627 789.439 77.6351C791.892 77.3053 795.092 77.3041 799.437 77.3041H841.134C845.478 77.3041 848.679 77.3053 851.132 77.6351C853.569 77.9627 855.182 78.605 856.402 79.8252C857.622 81.0454 858.265 82.6585 858.592 85.0951C858.922 87.5482 858.923 90.7488 858.923 95.0933V136.79C858.923 141.135 858.922 144.335 858.592 146.789C858.265 149.225 857.622 150.838 856.402 152.058C855.182 153.279 853.569 153.921 851.132 154.249C848.679 154.578 845.478 154.58 841.134 154.58H799.437C795.092 154.58 791.892 154.578 789.439 154.249C787.002 153.921 785.389 153.279 784.169 152.058C782.949 150.838 782.306 149.225 781.979 146.789C781.649 144.335 781.648 141.135 781.648 136.79V95.0933Z" stroke="#666666" stroke-width="1.14769"/>
</g>
<path d="M520.609 44.916L521.709 45.4523L521.921 44.2464C524.898 27.2819 541.162 14.2013 560.911 14.2013C582.803 14.2013 600.391 30.2583 600.391 49.8788V61.074V61.9963H601.313H605.115C630.157 61.9963 650.299 80.3666 650.299 102.841C650.299 125.315 630.157 143.685 605.115 143.685H487.713C469.234 143.685 454.413 130.134 454.413 113.605C454.413 113.466 454.414 113.327 454.416 113.189L454.416 113.175L454.416 113.161C454.414 113.022 454.413 112.883 454.413 112.744C454.413 100.555 462.454 90.0022 474.103 85.2834L475.037 84.9052L474.578 84.0086C472.617 80.1744 471.524 75.9066 471.524 71.4081C471.524 54.8791 486.345 41.3282 504.824 41.3282C510.54 41.3282 515.914 42.6286 520.609 44.916Z" fill="#2E2E2E" stroke="#666666" stroke-width="1.8445"/>
<g filter="url(#filter8_ddii_2764_4909)">
<rect x="518.417" y="112.145" width="67.8777" height="67.8777" rx="33.9388" fill="#44A775"/>
<rect x="518.917" y="112.645" width="66.8777" height="66.8777" rx="33.4388" stroke="#2F7350"/>
</g>
<path fill-rule="evenodd" clip-rule="evenodd" d="M544.688 143.894V141.667C544.688 139.728 545.458 137.868 546.83 136.496C548.201 135.125 550.061 134.354 552.001 134.354C553.94 134.354 555.801 135.125 557.172 136.496C558.543 137.868 559.314 139.728 559.314 141.667V143.894C560.522 143.984 561.307 144.211 561.883 144.786C562.835 145.738 562.835 147.271 562.835 150.335C562.835 153.399 562.835 154.932 561.883 155.883C560.931 156.835 559.398 156.835 556.335 156.835H547.667C544.603 156.835 543.07 156.835 542.119 155.883C541.167 154.932 541.167 153.399 541.167 150.335C541.167 147.271 541.167 145.738 542.119 144.786C542.693 144.211 543.48 143.984 544.688 143.894ZM546.313 141.667C546.313 140.159 546.912 138.712 547.979 137.645C549.046 136.579 550.492 135.979 552.001 135.979C553.509 135.979 554.956 136.579 556.023 137.645C557.09 138.712 557.689 140.159 557.689 141.667V143.838C557.274 143.835 556.823 143.833 556.335 143.834H547.667C547.178 143.833 546.727 143.835 546.313 143.838V141.667ZM554.168 150.335C554.168 150.909 553.939 151.46 553.533 151.867C553.127 152.273 552.576 152.501 552.001 152.501C551.426 152.501 550.875 152.273 550.469 151.867C550.062 151.46 549.834 150.909 549.834 150.335C549.834 149.76 550.062 149.209 550.469 148.802C550.875 148.396 551.426 148.168 552.001 148.168C552.576 148.168 553.127 148.396 553.533 148.802C553.939 149.209 554.168 149.76 554.168 150.335Z" fill="white"/>
</g>
<defs>
<filter id="filter0_d_2764_4909" x="252.44" y="111.038" width="96.8682" height="96.8682" filterUnits="userSpaceOnUse" color-interpolation-filters="sRGB">
<feFlood flood-opacity="0" result="BackgroundImageFix"/>
<feColorMatrix in="SourceAlpha" type="matrix" values="0 0 0 0 0 0 0 0 0 0 0 0 0 0 0 0 0 0 127 0" result="hardAlpha"/>
<feMorphology radius="5.53351" operator="erode" in="SourceAlpha" result="effect1_dropShadow_2764_4909"/>
<feOffset dy="3.689"/>
<feGaussianBlur stdDeviation="7.37801"/>
<feComposite in2="hardAlpha" operator="out"/>
<feColorMatrix type="matrix" values="0 0 0 0 0 0 0 0 0 0 0 0 0 0 0 0 0 0 0.05 0"/>
<feBlend mode="normal" in2="BackgroundImageFix" result="effect1_dropShadow_2764_4909"/>
<feBlend mode="normal" in="SourceGraphic" in2="effect1_dropShadow_2764_4909" result="shape"/>
</filter>
<filter id="filter1_f_2764_4909" x="270.844" y="125.753" width="64.2706" height="64.2706" filterUnits="userSpaceOnUse" color-interpolation-filters="sRGB">
<feFlood flood-opacity="0" result="BackgroundImageFix"/>
<feBlend mode="normal" in="SourceGraphic" in2="BackgroundImageFix" result="shape"/>
<feGaussianBlur stdDeviation="9.18152" result="effect1_foregroundBlur_2764_4909"/>
</filter>
<filter id="filter2_f_2764_4909" x="283.422" y="142.685" width="34.7586" height="26.0501" filterUnits="userSpaceOnUse" color-interpolation-filters="sRGB">
<feFlood flood-opacity="0" result="BackgroundImageFix"/>
<feBlend mode="normal" in="SourceGraphic" in2="BackgroundImageFix" result="shape"/>
<feGaussianBlur stdDeviation="0.737801" result="effect1_foregroundBlur_2764_4909"/>
</filter>
<filter id="filter3_d_2764_4909" x="501.816" y="270.403" width="96.8682" height="96.8682" filterUnits="userSpaceOnUse" color-interpolation-filters="sRGB">
<feFlood flood-opacity="0" result="BackgroundImageFix"/>
<feColorMatrix in="SourceAlpha" type="matrix" values="0 0 0 0 0 0 0 0 0 0 0 0 0 0 0 0 0 0 127 0" result="hardAlpha"/>
<feMorphology radius="5.53351" operator="erode" in="SourceAlpha" result="effect1_dropShadow_2764_4909"/>
<feOffset dy="3.689"/>
<feGaussianBlur stdDeviation="7.37801"/>
<feComposite in2="hardAlpha" operator="out"/>
<feColorMatrix type="matrix" values="0 0 0 0 0 0 0 0 0 0 0 0 0 0 0 0 0 0 0.05 0"/>
<feBlend mode="normal" in2="BackgroundImageFix" result="effect1_dropShadow_2764_4909"/>
<feBlend mode="normal" in="SourceGraphic" in2="effect1_dropShadow_2764_4909" result="shape"/>
</filter>
<filter id="filter4_f_2764_4909" x="532.794" y="303.657" width="34.7575" height="22.8948" filterUnits="userSpaceOnUse" color-interpolation-filters="sRGB">
<feFlood flood-opacity="0" result="BackgroundImageFix"/>
<feBlend mode="normal" in="SourceGraphic" in2="BackgroundImageFix" result="shape"/>
<feGaussianBlur stdDeviation="0.737801" result="effect1_foregroundBlur_2764_4909"/>
</filter>
<filter id="filter5_bi_2764_4909" x="771.892" y="67.5487" width="96.7862" height="96.7863" filterUnits="userSpaceOnUse" color-interpolation-filters="sRGB">
<feFlood flood-opacity="0" result="BackgroundImageFix"/>
<feGaussianBlur in="BackgroundImageFix" stdDeviation="4.59076"/>
<feComposite in2="SourceAlpha" operator="in" result="effect1_backgroundBlur_2764_4909"/>
<feBlend mode="normal" in="SourceGraphic" in2="effect1_backgroundBlur_2764_4909" result="shape"/>
<feColorMatrix in="SourceAlpha" type="matrix" values="0 0 0 0 0 0 0 0 0 0 0 0 0 0 0 0 0 0 127 0" result="hardAlpha"/>
<feMorphology radius="1.14769" operator="dilate" in="SourceAlpha" result="effect2_innerShadow_2764_4909"/>
<feOffset dy="1.14769"/>
<feGaussianBlur stdDeviation="4.59076"/>
<feComposite in2="hardAlpha" operator="arithmetic" k2="-1" k3="1"/>
<feColorMatrix type="matrix" values="0 0 0 0 1 0 0 0 0 1 0 0 0 0 1 0 0 0 0.07 0"/>
<feBlend mode="normal" in2="shape" result="effect2_innerShadow_2764_4909"/>
</filter>
<filter id="filter6_f_2764_4909" x="790.255" y="85.9116" width="64.2706" height="64.2706" filterUnits="userSpaceOnUse" color-interpolation-filters="sRGB">
<feFlood flood-opacity="0" result="BackgroundImageFix"/>
<feBlend mode="normal" in="SourceGraphic" in2="BackgroundImageFix" result="shape"/>
<feGaussianBlur stdDeviation="9.18152" result="effect1_foregroundBlur_2764_4909"/>
</filter>
<filter id="filter7_f_2764_4909" x="803.434" y="98.8989" width="33.557" height="33.938" filterUnits="userSpaceOnUse" color-interpolation-filters="sRGB">
<feFlood flood-opacity="0" result="BackgroundImageFix"/>
<feBlend mode="normal" in="SourceGraphic" in2="BackgroundImageFix" result="shape"/>
<feGaussianBlur stdDeviation="0.737801" result="effect1_foregroundBlur_2764_4909"/>
</filter>
<filter id="filter8_ddii_2764_4909" x="513.417" y="107.145" width="77.8777" height="77.8777" filterUnits="userSpaceOnUse" color-interpolation-filters="sRGB">
<feFlood flood-opacity="0" result="BackgroundImageFix"/>
<feColorMatrix in="SourceAlpha" type="matrix" values="0 0 0 0 0 0 0 0 0 0 0 0 0 0 0 0 0 0 127 0" result="hardAlpha"/>
<feMorphology radius="3" operator="dilate" in="SourceAlpha" result="effect1_dropShadow_2764_4909"/>
<feOffset/>
<feComposite in2="hardAlpha" operator="out"/>
<feColorMatrix type="matrix" values="0 0 0 0 0 0 0 0 0 0 0 0 0 0 0 0 0 0 0.04 0"/>
<feBlend mode="normal" in2="BackgroundImageFix" result="effect1_dropShadow_2764_4909"/>
<feColorMatrix in="SourceAlpha" type="matrix" values="0 0 0 0 0 0 0 0 0 0 0 0 0 0 0 0 0 0 127 0" result="hardAlpha"/>
<feMorphology radius="1" operator="erode" in="SourceAlpha" result="effect2_dropShadow_2764_4909"/>
<feOffset/>
<feGaussianBlur stdDeviation="3"/>
<feComposite in2="hardAlpha" operator="out"/>
<feColorMatrix type="matrix" values="0 0 0 0 0 0 0 0 0 0 0 0 0 0 0 0 0 0 0.45 0"/>
<feBlend mode="normal" in2="effect1_dropShadow_2764_4909" result="effect2_dropShadow_2764_4909"/>
<feBlend mode="normal" in="SourceGraphic" in2="effect2_dropShadow_2764_4909" result="shape"/>
<feColorMatrix in="SourceAlpha" type="matrix" values="0 0 0 0 0 0 0 0 0 0 0 0 0 0 0 0 0 0 127 0" result="hardAlpha"/>
<feMorphology radius="2" operator="erode" in="SourceAlpha" result="effect3_innerShadow_2764_4909"/>
<feOffset/>
<feComposite in2="hardAlpha" operator="arithmetic" k2="-1" k3="1"/>
<feColorMatrix type="matrix" values="0 0 0 0 1 0 0 0 0 1 0 0 0 0 1 0 0 0 0.25 0"/>
<feBlend mode="normal" in2="shape" result="effect3_innerShadow_2764_4909"/>
<feColorMatrix in="SourceAlpha" type="matrix" values="0 0 0 0 0 0 0 0 0 0 0 0 0 0 0 0 0 0 127 0" result="hardAlpha"/>
<feOffset dy="-2"/>
<feComposite in2="hardAlpha" operator="arithmetic" k2="-1" k3="1"/>
<feColorMatrix type="matrix" values="0 0 0 0 0 0 0 0 0 0 0 0 0 0 0 0 0 0 0.3 0"/>
<feBlend mode="normal" in2="effect3_innerShadow_2764_4909" result="effect4_innerShadow_2764_4909"/>
</filter>
<radialGradient id="paint0_radial_2764_4909" cx="0" cy="0" r="1" gradientUnits="userSpaceOnUse" gradientTransform="translate(302.979 157.888) rotate(52.4314) scale(18.8235)">
<stop/>
<stop offset="1" stop-opacity="0"/>
</radialGradient>
<radialGradient id="paint1_radial_2764_4909" cx="0" cy="0" r="1" gradientUnits="userSpaceOnUse" gradientTransform="translate(822.391 118.047) rotate(52.4314) scale(18.8235)">
<stop/>
<stop offset="1" stop-opacity="0"/>
</radialGradient>
<clipPath id="clip0_2764_4909">
<rect width="1120" height="400" rx="16" fill="white"/>
</clipPath>
<clipPath id="clip1_2764_4909">
<rect width="29.512" height="29.512" fill="white" transform="translate(286.045 140.954)"/>
</clipPath>
<clipPath id="clip2_2764_4909">
<rect width="29.512" height="29.512" fill="white" transform="translate(535.421 300.319)"/>
</clipPath>
<clipPath id="clip3_2764_4909">
<path d="M781.074 95.0933C781.074 86.4369 781.074 82.1086 783.763 79.4194C786.452 76.7302 790.78 76.7302 799.437 76.7302H841.134C849.79 76.7302 854.119 76.7302 856.808 79.4194C859.497 82.1086 859.497 86.4368 859.497 95.0933V136.79C859.497 145.447 859.497 149.775 856.808 152.464C854.119 155.153 849.79 155.153 841.134 155.153H799.437C790.78 155.153 786.452 155.153 783.763 152.464C781.074 149.775 781.074 145.447 781.074 136.79V95.0933Z" fill="white"/>
</clipPath>
<clipPath id="clip4_2764_4909">
<rect width="29.512" height="29.512" fill="white" transform="translate(805.457 101.112)"/>
</clipPath>
</defs>
</svg>